HIERARCHY
ROOT hip
{
  OFFSET 0 0 0
  CHANNELS 6 Xposition Yposition Zposition Zrotation Yrotation Xrotation
  JOINT abdomen
  {
    OFFSET 0 20.6881 -0.73152
    CHANNELS 3 Zrotation Xrotation Yrotation
    JOINT chest
    {
      OFFSET 0 11.7043 -0.48768
      CHANNELS 3 Zrotation Xrotation Yrotation
      JOINT neck
      {
        OFFSET 0 22.1894 -2.19456
        CHANNELS 3 Zrotation Xrotation Yrotation
        JOINT head
        {
          OFFSET -0.24384 7.07133 1.2192
          CHANNELS 3 Zrotation Xrotation Yrotation
          JOINT leftEye
          {
            OFFSET 4.14528 8.04674 8.04672
            CHANNELS 3 Zrotation Xrotation Yrotation
            End Site
            {
              OFFSET 1 0 0
            }
          }
          JOINT rightEye
          {
            OFFSET -3.6576 8.04674 8.04672
            CHANNELS 3 Zrotation Xrotation Yrotation
            End Site
            {
              OFFSET 1 0 0
            }
          }
        }
      }
      JOINT rCollar
      {
        OFFSET -2.68224 19.2634 -4.8768
        CHANNELS 3 Zrotation Xrotation Yrotation
        JOINT rShldr
        {
          OFFSET -8.77824 -1.95073 1.46304
          CHANNELS 3 Zrotation Xrotation Yrotation
          JOINT rForeArm
          {
            OFFSET -28.1742 -1.7115 0.48768
            CHANNELS 3 Zrotation Xrotation Yrotation
            JOINT rHand
            {
              OFFSET -22.5879 0.773209 7.07136
              CHANNELS 3 Zrotation Xrotation Yrotation
              JOINT rThumb1
              {
                OFFSET -1.2192 -0.487915 3.41376
                CHANNELS 3 Zrotation Xrotation Yrotation
                JOINT rThumb2
                {
                  OFFSET -3.37035 -0.52449 3.41376
                  CHANNELS 3 Zrotation Xrotation Yrotation
                  End Site
                  {
                    OFFSET -1.78271 -1.18214 1.43049
                  }
                }
              }
              JOINT rIndex1
              {
                OFFSET -7.75947 0.938293 5.60832
                CHANNELS 3 Zrotation Xrotation Yrotation
                JOINT rIndex2
                {
                  OFFSET -2.54057 -0.884171 1.56538
                  CHANNELS 3 Zrotation Xrotation Yrotation
                  End Site
                  {
                    OFFSET -1.62519 -0.234802 1.16502
                  }
                }
              }
              JOINT rMid1
              {
                OFFSET -8.24714 1.18213 3.41376
                CHANNELS 3 Zrotation Xrotation Yrotation
                JOINT rMid2
                {
                  OFFSET -3.10165 -0.590103 1.0647
                  CHANNELS 3 Zrotation Xrotation Yrotation
                  End Site
                  {
                    OFFSET -2.48547 -0.328903 0.83742
                  }
                }
              }
              JOINT rRing1
              {
                OFFSET -8.82822 0.546677 1.51678
                CHANNELS 3 Zrotation Xrotation Yrotation
                JOINT rRing2
                {
                  OFFSET -2.60934 -0.819778 -0.0198488
                  CHANNELS 3 Zrotation Xrotation Yrotation
                  End Site
                  {
                    OFFSET -2.33842 -0.294052 0.168128
                  }
                }
              }
              JOINT rPinky1
              {
                OFFSET -8.27202 -0.0477905 -0.4584
                CHANNELS 3 Zrotation Xrotation Yrotation
                JOINT rPinky2
                {
                  OFFSET -1.82734 -0.647385 -0.700984
                  CHANNELS 3 Zrotation Xrotation Yrotation
                  End Site
                  {
                    OFFSET -1.69225 -0.51767 -0.607171
                  }
                }
              }
            }
          }
        }
      }
      JOINT lCollar
      {
        OFFSET 2.68224 19.2634 -4.8768
        CHANNELS 3 Zrotation Xrotation Yrotation
        JOINT lShldr
        {
          OFFSET 8.77824 -1.95073 1.46304
          CHANNELS 3 Zrotation Xrotation Yrotation
          JOINT lForeArm
          {
            OFFSET 28.1742 -1.7115 0.48768
            CHANNELS 3 Zrotation Xrotation Yrotation
            JOINT lHand
            {
              OFFSET 22.5879 0.773209 7.07136
              CHANNELS 3 Zrotation Xrotation Yrotation
              JOINT lThumb1
              {
                OFFSET 1.2192 -0.487915 3.41376
                CHANNELS 3 Zrotation Xrotation Yrotation
                JOINT lThumb2
                {
                  OFFSET 3.37035 -0.52449 3.41376
                  CHANNELS 3 Zrotation Xrotation Yrotation
                  End Site
                  {
                    OFFSET 1.78271 -1.18214 1.43049
                  }
                }
              }
              JOINT lIndex1
              {
                OFFSET 7.75947 0.938293 5.60832
                CHANNELS 3 Zrotation Xrotation Yrotation
                JOINT lIndex2
                {
                  OFFSET 2.54057 -0.884171 1.56538
                  CHANNELS 3 Zrotation Xrotation Yrotation
                  End Site
                  {
                    OFFSET 1.62519 -0.234802 1.16502
                  }
                }
              }
              JOINT lMid1
              {
                OFFSET 8.24714 1.18213 3.41376
                CHANNELS 3 Zrotation Xrotation Yrotation
                JOINT lMid2
                {
                  OFFSET 3.10165 -0.590103 1.0647
                  CHANNELS 3 Zrotation Xrotation Yrotation
                  End Site
                  {
                    OFFSET 2.48547 -0.328903 0.83742
                  }
                }
              }
              JOINT lRing1
              {
                OFFSET 8.82822 0.546677 1.51678
                CHANNELS 3 Zrotation Xrotation Yrotation
                JOINT lRing2
                {
                  OFFSET 2.60934 -0.819778 -0.0198488
                  CHANNELS 3 Zrotation Xrotation Yrotation
                  End Site
                  {
                    OFFSET 2.33842 -0.294052 0.168128
                  }
                }
              }
              JOINT lPinky1
              {
                OFFSET 8.27202 -0.0477905 -0.4584
                CHANNELS 3 Zrotation Xrotation Yrotation
                JOINT lPinky2
                {
                  OFFSET 1.82734 -0.647385 -0.700984
                  CHANNELS 3 Zrotation Xrotation Yrotation
                  End Site
                  {
                    OFFSET 1.69225 -0.51767 -0.607171
                  }
                }
              }
            }
          }
        }
      }
    }
  }
  JOINT rButtock
  {
    OFFSET -8.77824 4.35084 1.2192
    CHANNELS 3 Zrotation Xrotation Yrotation
    JOINT rThigh
    {
      OFFSET 0 -1.70687 -2.19456
      CHANNELS 3 Zrotation Xrotation Yrotation
      JOINT rShin
      {
        OFFSET 0 -36.8199 0.73152
        CHANNELS 3 Zrotation Xrotation Yrotation
        JOINT rFoot
        {
          OFFSET 0.73152 -45.1104 -5.12064
          CHANNELS 3 Zrotation Xrotation Yrotation
          End Site
          {
            OFFSET -1.1221 -3.69964 12.103
          }
        }
      }
    }
  }
  JOINT lButtock
  {
    OFFSET 8.77824 4.35084 1.2192
    CHANNELS 3 Zrotation Xrotation Yrotation
    JOINT lThigh
    {
      OFFSET 0 -1.70687 -2.19456
      CHANNELS 3 Zrotation Xrotation Yrotation
      JOINT lShin
      {
        OFFSET 0 -36.8199 0.73152
        CHANNELS 3 Zrotation Xrotation Yrotation
        JOINT lFoot
        {
          OFFSET -0.73152 -45.1104 -5.12064
          CHANNELS 3 Zrotation Xrotation Yrotation
          End Site
          {
            OFFSET 1.1221 -3.69964 12.103
          }
        }
      }
    }
  }
}
MOTION
Frames:	8
Frame Time:	0.00833333
47.3117 87.3426 -49.2911 8.0333 -7.5949 -12.8639 -3.73586 18.0714 11.1302 -3.25332 2.53899 2.47597 -1.85067 14.3774 4.27696 -0.958884 22.1719 8.62305 -0.0 0.0 0.0 -0.0 0.0 0.0 -3.64419e-14 8.72625e-14 1.29968e-13 66.5884 24.6442 -2.32618 -22.0443 -15.824 43.9094 -0.0324695 -5.13235 -0.723263 -1.46896e-09 3.33445e-09 9.03761e-10 -2.5479e-09 5.78321e-09 1.55888e-09 -1.46896e-09 3.33445e-09 9.0375e-10 7.73091 5.47488 0.417314 -1.46896e-09 3.33445e-09 9.03758e-10 2.90554 0.965183 0.102902 -1.46896e-09 3.33445e-09 9.03761e-10 10.2786 0.731801 0.0259123 -1.46897e-09 3.33445e-09 9.03771e-10 2.22167 -0.733487 -0.20892 -3.6499e-14 8.72698e-14 1.29881e-13 -69.8437 12.1432 9.39318 12.3254 -5.6784 -22.2437 0.427189 18.2657 -2.6586 -9.83973e-10 2.35064e-10 1.98083e-09 -1.66984e-09 4.16546e-10 3.43822e-09 -9.83979e-10 2.3507e-10 1.98084e-09 -7.73091 5.47488 -0.417314 -9.8397e-10 2.35067e-10 1.98083e-09 -2.90554 0.965183 -0.102902 -9.83983e-10 2.35069e-10 1.98084e-09 -10.2786 0.731801 -0.0259123 -9.83972e-10 2.35071e-10 1.98083e-09 -2.22167 -0.733487 0.20892 -2.03217e-16 0.0 -3.88251e-19 -3.05602 6.19302 7.25199 0.172049 19.8598 2.2257 -2.91958 -14.7264 -6.84068 2.03217e-16 0.0 3.88251e-19 157.808 -68.0818 149.952 0.530555 42.9845 -0.251456 179.904 -14.7693 -172.855
47.1917 87.1974 -49.4671 7.7367 -7.5081 -12.0508 -3.42569 17.4275 10.8561 -2.95064 2.69698 2.42216 -1.89447 14.1206 4.32542 -1.01646 22.3597 8.73642 -0.0 0.0 0.0 -0.0 0.0 0.0 8.13481e-14 5.42892e-14 1.14064e-13 66.5004 24.6391 -2.14058 -21.9246 -15.6442 43.5877 -0.0296002 -4.90231 -0.69068 -2.18388e-09 4.70513e-09 7.4372e-10 -3.78215e-09 8.15248e-09 1.28081e-09 -2.18387e-09 4.70514e-09 7.43711e-10 7.73091 5.47488 0.417314 -2.18388e-09 4.70514e-09 7.43717e-10 2.90554 0.965183 0.102902 -2.18387e-09 4.70513e-09 7.43723e-10 10.2786 0.731801 0.0259123 -2.18388e-09 4.70513e-09 7.43736e-10 2.22167 -0.733487 -0.20892 8.1324e-14 5.42965e-14 1.13947e-13 -69.7336 12.881 8.98885 12.6487 -5.91251 -22.8761 0.40213 17.745 -2.57759 -1.91815e-09 -2.04962e-10 1.33891e-09 -3.2938e-09 -3.44666e-10 2.34421e-09 -1.91816e-09 -2.04959e-10 1.33892e-09 -7.73091 5.47488 -0.417314 -1.91815e-09 -2.04962e-10 1.33891e-09 -2.90554 0.965183 -0.102902 -1.91816e-09 -2.0496e-10 1.33891e-09 -10.2786 0.731801 -0.0259123 -1.91815e-09 -2.04958e-10 1.33891e-09 -2.22167 -0.733487 0.20892 -2.03217e-16 0.0 -3.88251e-19 -2.92099 5.31442 6.90403 0.196104 19.9586 2.3063 -2.8754 -14.8687 -6.76953 2.03217e-16 0.0 3.88251e-19 153.428 -70.4505 145.297 0.564133 44.8243 -0.410394 179.999 -15.0206 -172.675
47.3023 87.0002 -49.5641 8.128 -7.0736 -11.0341 -3.04924 16.8335 10.542 -2.58009 2.81779 2.36231 -1.97976 13.8957 4.37147 -1.02651 22.5351 8.83475 -0.0 0.0 0.0 -0.0 0.0 0.0 1.81113e-13 4.61149e-14 1.04213e-13 66.4911 24.5897 -2.04724 -21.7967 -15.4551 43.2438 -0.0268774 -4.67475 -0.65847 -2.80286e-09 5.83625e-09 6.16217e-10 -4.85096e-09 1.01075e-08 1.05914e-09 -2.80286e-09 5.83625e-09 6.1621e-10 7.73091 5.47488 0.417314 -2.80286e-09 5.83625e-09 6.16213e-10 2.90554 0.965183 0.102902 -2.80285e-09 5.83624e-09 6.16222e-10 10.2786 0.731801 0.0259123 -2.80287e-09 5.83624e-09 6.16236e-10 2.22167 -0.733487 -0.20892 1.81084e-13 4.61208e-14 1.04064e-13 -69.7016 13.6297 8.63813 12.9964 -6.17242 -23.5556 0.381623 17.2978 -2.5085 -2.62157e-09 -5.14315e-10 8.50213e-10 -4.51643e-09 -8.79363e-10 1.51096e-09 -2.62158e-09 -5.14314e-10 8.5022e-10 -7.73091 5.47488 -0.417314 -2.62157e-09 -5.14316e-10 8.50216e-10 -2.90554 0.965183 -0.102902 -2.62158e-09 -5.14315e-10 8.50215e-10 -10.2786 0.731801 -0.0259123 -2.62157e-09 -5.14312e-10 8.5021e-10 -2.22167 -0.733487 0.20892 -2.03217e-16 0.0 -3.88251e-19 -2.68023 4.27346 6.55838 0.222084 20.2632 2.37831 -2.83241 -15.0366 -6.72571 2.03217e-16 0.0 3.88251e-19 147.126 -72.954 138.745 0.581765 47.0576 -0.605172 -179.906 -15.2688 -172.542
47.2119 86.7399 -50.0644 7.978 -6.8124 -9.9543 -2.6019 16.3099 10.1888 -2.09126 2.86557 2.29215 -2.13952 13.7035 4.41766 -0.962875 22.7114 8.91829 -0.0 0.0 0.0 -0.0 0.0 0.0 2.65309e-13 8.03821e-14 1.04948e-13 66.5289 24.495 -2.03547 -21.6585 -15.2536 42.8731 -0.0243934 -4.45769 -0.627764 -3.39222e-09 6.82442e-09 5.41348e-10 -5.86926e-09 1.18155e-08 9.28372e-10 -3.39221e-09 6.82442e-09 5.41343e-10 7.73091 5.47488 0.417314 -3.39222e-09 6.82442e-09 5.41344e-10 2.90554 0.965183 0.102902 -3.39221e-09 6.82442e-09 5.41353e-10 10.2786 0.731801 0.0259123 -3.39223e-09 6.82442e-09 5.41366e-10 2.22167 -0.733487 -0.20892 2.65207e-13 8.03843e-14 1.04764e-13 -69.7897 14.3878 8.33378 13.3753 -6.46326 -24.3013 0.367851 16.9827 -2.46013 -3.04158e-09 -6.16471e-10 6.03865e-10 -5.24521e-09 -1.05448e-09 1.09159e-09 -3.04159e-09 -6.16471e-10 6.03875e-10 -7.73091 5.47488 -0.417314 -3.04158e-09 -6.16473e-10 6.03868e-10 -2.90554 0.965183 -0.102902 -3.04159e-09 -6.16473e-10 6.03867e-10 -10.2786 0.731801 -0.0259123 -3.04157e-09 -6.16469e-10 6.03862e-10 -2.22167 -0.733487 0.20892 -2.03217e-16 0.0 -3.88251e-19 -2.29426 3.01254 6.22344 0.254276 20.8383 2.45533 -2.79512 -15.2444 -6.71744 2.03217e-16 0.0 3.88251e-19 137.365 -75.4314 128.733 0.744417 49.6524 -0.863462 -179.75 -14.958 -171.67
47.2916 86.4941 -50.145 8.2412 -6.3771 -9.1548 -2.07831 15.8035 9.80174 -1.51111 2.87517 2.21514 -2.35631 13.5226 4.45978 -0.841633 22.8993 8.98329 -0.0 0.0 0.0 -0.0 0.0 0.0 3.5141e-13 1.37759e-13 1.07754e-13 66.6113 24.3672 -2.08301 -21.5004 -15.0256 42.4566 -0.0218511 -4.21812 -0.593899 -3.98809e-09 7.75279e-09 4.70922e-10 -6.89901e-09 1.34197e-08 8.05185e-10 -3.98809e-09 7.75279e-09 4.70918e-10 7.73091 5.47488 0.417314 -3.98809e-09 7.75278e-09 4.70917e-10 2.90554 0.965183 0.102902 -3.98808e-09 7.75278e-09 4.70926e-10 10.2786 0.731801 0.0259123 -3.9881e-09 7.75278e-09 4.70936e-10 2.22167 -0.733487 -0.20892 3.5119e-13 1.37756e-13 1.0753e-13 -69.9739 15.1606 8.06723 13.7769 -6.77788 -25.1028 0.358387 16.7643 -2.42665 -3.31499e-09 -6.11411e-10 4.27127e-10 -5.71934e-09 -1.0435e-09 7.89993e-10 -3.315e-09 -6.11411e-10 4.27143e-10 -7.73091 5.47488 -0.417314 -3.31499e-09 -6.11413e-10 4.27129e-10 -2.90554 0.965183 -0.102902 -3.315e-09 -6.11413e-10 4.27129e-10 -10.2786 0.731801 -0.0259123 -3.31499e-09 -6.1141e-10 4.27125e-10 -2.22167 -0.733487 0.20892 -2.03217e-16 0.0 -3.88251e-19 -1.79793 1.55861 5.88843 0.290253 21.6132 2.53932 -2.7601 -15.4894 -6.73182 2.03217e-16 0.0 3.88251e-19 122.325 -77.4505 113.438 1.03668 52.6138 -1.20535 -179.581 -14.2635 -170.325
47.0658 86.2147 -50.5477 7.5916 -6.4658 -8.2025 -1.49488 15.3068 9.37439 -0.933173 2.90109 2.13833 -2.56941 13.3674 4.49529 -0.708748 23.0612 9.03161 -0.0 0.0 0.0 -0.0 0.0 0.0 4.20786e-13 1.93048e-13 1.08814e-13 66.8104 24.1995 -2.23015 -21.3322 -14.7859 42.0197 -0.0193112 -3.96278 -0.557831 -4.41421e-09 8.34157e-09 3.95867e-10 -7.63516e-09 1.44364e-08 6.74478e-10 -4.4142e-09 8.34156e-09 3.95863e-10 7.73091 5.47488 0.417314 -4.4142e-09 8.34156e-09 3.95861e-10 2.90554 0.965183 0.102902 -4.4142e-09 8.34156e-09 3.95869e-10 10.2786 0.731801 0.0259123 -4.41421e-09 8.34156e-09 3.95876e-10 2.22167 -0.733487 -0.20892 4.20452e-13 1.93039e-13 1.0855e-13 -70.1853 15.9473 7.86259 14.1852 -7.10563 -25.9268 0.348218 16.5372 -2.39178 -3.45767e-09 -5.96324e-10 2.49025e-10 -5.96756e-09 -1.01571e-09 4.83692e-10 -3.45767e-09 -5.96325e-10 2.49047e-10 -7.73091 5.47488 -0.417314 -3.45766e-09 -5.96326e-10 2.49025e-10 -2.90554 0.965183 -0.102902 -3.45767e-09 -5.96327e-10 2.49027e-10 -10.2786 0.731801 -0.0259123 -3.45766e-09 -5.96324e-10 2.49024e-10 -2.22167 -0.733487 0.20892 -2.03217e-16 0.0 -3.88251e-19 -1.26544 0.0202687 5.546 0.31976 22.4948 2.59988 -2.72065 -15.7417 -6.76038 2.03217e-16 0.0 3.88251e-19 102.169 -78.4128 93.0674 1.18239 56.0087 -1.61807 -179.471 -14.3065 -170.067
47.1046 85.9049 -50.7112 7.8633 -6.3654 -7.435 -0.868428 14.8119 8.90027 -0.450677 2.99787 2.06875 -2.7181 13.2525 4.52166 -0.610089 23.1594 9.06503 -0.0 0.0 0.0 -0.0 0.0 0.0 4.54809e-13 2.21054e-13 1.04312e-13 67.1969 23.9848 -2.51676 -21.1643 -14.5506 41.5874 -0.0168052 -3.6984 -0.520507 -4.49429e-09 8.31098e-09 3.07108e-10 -7.77267e-09 1.43817e-08 5.21149e-10 -4.49428e-09 8.31098e-09 3.07105e-10 7.73091 5.47488 0.417314 -4.49429e-09 8.31098e-09 3.07102e-10 2.90554 0.965183 0.102902 -4.49428e-09 8.31098e-09 3.07109e-10 10.2786 0.731801 0.0259123 -4.4943e-09 8.31098e-09 3.07114e-10 2.22167 -0.733487 -0.20892 4.54413e-13 2.21041e-13 1.04014e-13 -70.3565 16.7471 7.74442 14.5855 -7.43666 -26.7396 0.332918 16.196 -2.33948 -3.48545e-09 -6.68403e-10 -1.41535e-12 -6.01862e-09 -1.14039e-09 5.02281e-11 -3.48545e-09 -6.68404e-10 -1.3899e-12 -7.73091 5.47488 -0.417314 -3.48545e-09 -6.68405e-10 -1.41535e-12 -2.90554 0.965183 -0.102902 -3.48546e-09 -6.68406e-10 -1.41296e-12 -10.2786 0.731801 -0.0259123 -3.48545e-09 -6.68403e-10 -1.41535e-12 -2.22167 -0.733487 0.20892 -2.03217e-16 0.0 -3.88251e-19 -0.769274 -1.49369 5.18744 0.335158 23.3901 2.60542 -2.66991 -15.9712 -6.79454 2.03217e-16 0.0 3.88251e-19 80.7092 -77.9622 71.458 0.909574 59.9044 -2.09602 -179.539 -16.2107 -172.47
47.179 85.573 -50.9224 8.1577 -6.1093 -6.73 -0.133139 14.3374 8.34616 -0.0849482 3.19461 2.01157 -2.78279 13.2088 4.53691 -0.539354 23.1356 9.0758 -0.0 0.0 0.0 -0.0 0.0 0.0 4.47912e-13 2.0867e-13 9.06936e-14 67.8411 23.7006 -2.96568 -20.9904 -14.3114 41.1395 -0.0144154 -3.42734 -0.482262 -4.08307e-09 7.32712e-09 1.63998e-10 -7.05976e-09 1.26775e-08 2.75632e-10 -4.08307e-09 7.32713e-09 1.63995e-10 7.73091 5.47488 0.417314 -4.08307e-09 7.32712e-09 1.63993e-10 2.90554 0.965183 0.102902 -4.08306e-09 7.32712e-09 1.63998e-10 10.2786 0.731801 0.0259123 -4.08308e-09 7.32712e-09 1.64005e-10 2.22167 -0.733487 -0.20892 4.47533e-13 2.08652e-13 9.03624e-14 -70.434 17.6592 7.73059 15.0009 -7.79389 -27.5835 0.309332 15.6517 -2.25646 -3.41693e-09 -9.5892e-10 -4.82434e-10 -5.90675e-09 -1.64577e-09 -7.84325e-10 -3.41693e-09 -9.58921e-10 -4.82409e-10 -7.73091 5.47488 -0.417314 -3.41693e-09 -9.58922e-10 -4.82433e-10 -2.90554 0.965183 -0.102902 -3.41694e-09 -9.58923e-10 -4.82431e-10 -10.2786 0.731801 -0.0259123 -3.41693e-09 -9.58921e-10 -4.82434e-10 -2.22167 -0.733487 0.20892 -2.03217e-16 0.0 -3.88251e-19 -0.287395 -3.02719 4.78424 0.337854 24.4157 2.54147 -2.60961 -16.2124 -6.87223 2.03217e-16 0.0 3.88251e-19 61.7944 -76.1641 52.4274 -0.184251 65.1473 -2.81207 179.082 -17.4649 179.964
